<svg width="687" height="389" viewBox="0 0 687 389" fill="none" xmlns="http://www.w3.org/2000/svg">
<g clip-path="url(#clip0_820_4990)">
<mask id="mask0_820_4990" style="mask-type:luminance" maskUnits="userSpaceOnUse" x="-6" y="0" width="699" height="389">
<path d="M-5.25 0H692.75V389H-5.25V0Z" fill="white"/>
</mask>
<g mask="url(#mask0_820_4990)">
<path d="M-5.25 0H692.75V389H-5.25V0Z" fill="#D2FFC1"/>
<path d="M344.096 431.78C344.096 431.78 526.38 340.586 526.38 203.795V117.161C526.38 92.2667 526.38 79.8193 523.242 71.8014C519.732 62.8355 517.521 59.7501 510.158 53.5486C503.575 48.0029 487.349 42.5062 454.897 31.5129C396.515 11.7359 352.353 -24.1895 344.096 -24.1895C335.84 -24.1895 291.678 11.7359 233.296 31.5129C200.844 42.5062 184.618 48.0029 178.034 53.5486C170.672 59.7501 168.461 62.8355 164.951 71.8014C161.812 79.8193 161.812 92.2667 161.812 117.161V203.795C161.812 340.586 344.096 431.78 344.096 431.78Z" stroke="white" stroke-width="2" stroke-linecap="square"/>
<path d="M344 493C344 493 575 377.4 575 204V94.18C575 62.623 575 46.8445 571.023 36.6807C566.575 25.3152 563.772 21.4041 554.443 13.543C546.1 6.51306 525.537 -0.454658 484.412 -14.3901C410.428 -39.4601 354.464 -85 344 -85C333.536 -85 277.572 -39.4601 203.588 -14.3901C162.463 -0.454657 141.901 6.51306 133.557 13.543C124.228 21.4041 121.425 25.3152 116.977 36.6807C113 46.8445 113 62.623 113 94.18V204C113 377.4 344 493 344 493Z" stroke="white" stroke-width="2" stroke-linecap="square"/>
<path d="M344 554C344 554 624 414 624 204V71C624 32.7822 624 13.6733 619.179 1.3642C613.788 -12.4002 610.391 -17.1369 599.082 -26.6573C588.969 -35.171 564.045 -43.6095 514.196 -60.4863C424.518 -90.8478 356.683 -146 344 -146C331.317 -146 263.482 -90.8478 173.804 -60.4863C123.955 -43.6095 99.0309 -35.171 88.918 -26.6573C77.6093 -17.1369 74.2122 -12.4002 68.8211 1.3642C64 13.6733 64 32.7822 64 71V204C64 414 344 554 344 554Z" stroke="white" stroke-width="2" stroke-linecap="square"/>
<path d="M386.519 283.215H299.609C294.639 283.215 290.609 287.244 290.609 292.215V320.215C290.609 325.185 294.639 329.215 299.609 329.215H386.519C391.49 329.215 395.519 325.185 395.519 320.215V292.215C395.519 287.244 391.49 283.215 386.519 283.215Z" fill="#45FF00"/>
<path d="M386.519 283.215H299.609C294.639 283.215 290.609 287.244 290.609 292.215V320.215C290.609 325.185 294.639 329.215 299.609 329.215H386.519C391.49 329.215 395.519 325.185 395.519 320.215V292.215C395.519 287.244 391.49 283.215 386.519 283.215Z" stroke="#00063D" stroke-width="2"/>
<path d="M328.279 298.215L313.612 312.882L306.945 306.215" stroke="#00063D" stroke-width="2" stroke-linecap="square"/>
<path d="M381.711 313.147C379.858 315.035 377.575 315.98 374.859 315.98C372.144 315.98 369.851 315.035 367.981 313.147C366.129 311.259 365.203 308.94 365.203 306.188C365.203 303.455 366.129 301.153 367.981 299.283C369.851 297.395 372.144 296.451 374.859 296.451C377.575 296.451 379.858 297.395 381.711 299.283C383.581 301.153 384.516 303.455 384.516 306.188C384.516 308.94 383.581 311.259 381.711 313.147ZM367.873 306.188C367.873 308.256 368.548 310.001 369.896 311.421C371.245 312.824 372.899 313.525 374.859 313.525C376.819 313.525 378.465 312.824 379.795 311.421C381.144 310.001 381.818 308.256 381.818 306.188C381.818 304.156 381.144 302.439 379.795 301.037C378.465 299.616 376.819 298.906 374.859 298.906C372.899 298.906 371.245 299.616 369.896 301.037C368.548 302.439 367.873 304.156 367.873 306.188Z" fill="#00063D"/>
<path d="M357.398 315.98C355.671 315.98 354.242 315.395 353.109 314.226C351.994 313.057 351.438 311.556 351.438 309.722H354.027C354.027 310.855 354.342 311.781 354.971 312.5C355.6 313.201 356.408 313.552 357.398 313.552C358.315 313.552 359.071 313.264 359.664 312.689C360.276 312.113 360.581 311.376 360.581 310.477C360.581 309.794 360.41 309.227 360.069 308.778C359.745 308.328 359.323 307.987 358.801 307.753C358.28 307.519 357.704 307.312 357.075 307.132C356.445 306.953 355.807 306.746 355.16 306.512C354.53 306.26 353.955 305.964 353.433 305.622C352.912 305.28 352.48 304.777 352.139 304.111C351.815 303.446 351.653 302.637 351.653 301.684C351.653 300.155 352.166 298.906 353.191 297.935C354.216 296.946 355.528 296.451 357.129 296.451C358.801 296.451 360.149 296.991 361.174 298.07C362.199 299.148 362.712 300.524 362.712 302.196H360.122C360.086 301.225 359.79 300.434 359.233 299.823C358.675 299.193 357.956 298.879 357.075 298.879C356.248 298.879 355.564 299.139 355.025 299.661C354.485 300.182 354.216 300.83 354.216 301.603C354.216 302.25 354.378 302.79 354.701 303.221C355.025 303.635 355.447 303.95 355.969 304.165C356.508 304.381 357.092 304.57 357.721 304.732C358.351 304.894 358.98 305.1 359.609 305.352C360.257 305.586 360.842 305.883 361.364 306.242C361.903 306.602 362.335 307.141 362.658 307.861C363 308.58 363.171 309.452 363.171 310.477C363.189 312.095 362.649 313.417 361.552 314.442C360.455 315.467 359.07 315.98 357.398 315.98Z" fill="#00063D"/>
<path d="M343.57 315.98C341.844 315.98 340.415 315.395 339.282 314.226C338.167 313.057 337.609 311.556 337.609 309.722H340.199C340.199 310.855 340.513 311.781 341.143 312.5C341.772 313.201 342.581 313.552 343.57 313.552C344.487 313.552 345.243 313.264 345.836 312.689C346.447 312.113 346.753 311.376 346.753 310.477C346.753 309.794 346.582 309.227 346.241 308.778C345.917 308.328 345.494 307.987 344.973 307.753C344.451 307.519 343.876 307.312 343.247 307.132C342.617 306.953 341.979 306.746 341.332 306.512C340.702 306.26 340.127 305.964 339.605 305.622C339.084 305.28 338.652 304.777 338.311 304.111C337.987 303.446 337.825 302.637 337.825 301.684C337.825 300.155 338.338 298.906 339.363 297.935C340.388 296.946 341.7 296.451 343.301 296.451C344.973 296.451 346.322 296.991 347.347 298.07C348.372 299.148 348.884 300.524 348.884 302.196H346.295C346.259 301.225 345.962 300.434 345.405 299.823C344.847 299.193 344.128 298.879 343.247 298.879C342.42 298.879 341.736 299.139 341.197 299.661C340.657 300.182 340.388 300.83 340.388 301.603C340.388 302.25 340.549 302.79 340.873 303.221C341.197 303.635 341.619 303.95 342.141 304.165C342.68 304.381 343.265 304.57 343.894 304.732C344.523 304.894 345.153 305.1 345.782 305.352C346.429 305.586 347.014 305.883 347.535 306.242C348.075 306.602 348.506 307.141 348.83 307.861C349.172 308.58 349.343 309.452 349.343 310.477C349.361 312.095 348.821 313.417 347.724 314.442C346.627 315.467 345.243 315.98 343.57 315.98Z" fill="#00063D"/>
<path d="M243.016 283.215H135.664C130.693 283.215 126.664 287.244 126.664 292.215V320.215C126.664 325.185 130.693 329.215 135.664 329.215H243.016C247.987 329.215 252.016 325.185 252.016 320.215V292.215C252.016 287.244 247.987 283.215 243.016 283.215Z" fill="#45FF00"/>
<path d="M243.016 283.215H135.664C130.693 283.215 126.664 287.244 126.664 292.215V320.215C126.664 325.185 130.693 329.215 135.664 329.215H243.016C247.987 329.215 252.016 325.185 252.016 320.215V292.215C252.016 287.244 247.987 283.215 243.016 283.215Z" stroke="#00063D" stroke-width="2"/>
<path d="M164.333 298.215L149.667 312.882L143 306.215" stroke="#00063D" stroke-width="2" stroke-linecap="square"/>
<path d="M228.609 315.656V313.498L235.326 306.701C236.369 305.676 237.097 304.84 237.51 304.192C237.942 303.545 238.158 302.826 238.158 302.035C238.158 301.117 237.852 300.371 237.241 299.796C236.647 299.22 235.874 298.933 234.921 298.933C233.86 298.933 232.997 299.319 232.332 300.093C231.666 300.848 231.352 301.801 231.388 302.952H228.798C228.762 301.082 229.338 299.535 230.524 298.312C231.711 297.072 233.222 296.451 235.056 296.451C236.746 296.451 238.131 296.973 239.21 298.016C240.289 299.059 240.828 300.353 240.828 301.9C240.828 302.727 240.648 303.536 240.289 304.327C239.929 305.118 239.524 305.784 239.075 306.323C238.625 306.845 237.969 307.528 237.106 308.373L232.574 313.147H241.017V315.656H228.609Z" fill="#00063D"/>
<path d="M218.198 315.98C215.5 315.98 213.244 315.044 211.427 313.174C209.611 311.286 208.703 308.949 208.703 306.161C208.703 303.41 209.611 301.108 211.427 299.256C213.244 297.386 215.5 296.451 218.198 296.451C220.391 296.451 222.297 297.081 223.916 298.339C225.552 299.598 226.541 301.216 226.883 303.194H224.078C223.718 301.918 222.99 300.884 221.893 300.093C220.814 299.301 219.582 298.906 218.198 298.906C216.256 298.906 214.628 299.598 213.315 300.983C212.021 302.367 211.373 304.093 211.373 306.161C211.373 308.265 212.021 310.019 213.315 311.421C214.628 312.824 216.256 313.525 218.198 313.525C219.6 313.525 220.85 313.102 221.947 312.257C223.062 311.412 223.772 310.333 224.078 309.021H226.937C226.559 311.088 225.552 312.77 223.916 314.064C222.297 315.341 220.391 315.98 218.198 315.98Z" fill="#00063D"/>
<path d="M203.937 313.147C202.085 315.035 199.801 315.98 197.086 315.98C194.371 315.98 192.078 315.035 190.208 313.147C188.356 311.259 187.43 308.94 187.43 306.188C187.43 303.455 188.356 301.153 190.208 299.283C192.078 297.395 194.371 296.451 197.086 296.451C199.801 296.451 202.085 297.395 203.937 299.283C205.807 301.153 206.742 303.455 206.742 306.188C206.742 308.94 205.807 311.259 203.937 313.147ZM190.1 306.188C190.1 308.256 190.774 310.001 192.123 311.421C193.472 312.824 195.126 313.525 197.086 313.525C199.046 313.525 200.691 312.824 202.022 311.421C203.371 310.001 204.045 308.256 204.045 306.188C204.045 304.156 203.371 302.439 202.022 301.037C200.691 299.616 199.046 298.906 197.086 298.906C195.126 298.906 193.472 299.616 192.123 301.037C190.774 302.439 190.1 304.156 190.1 306.188Z" fill="#00063D"/>
<path d="M179.625 315.98C177.899 315.98 176.469 315.395 175.336 314.226C174.222 313.057 173.664 311.556 173.664 309.722H176.253C176.253 310.855 176.568 311.781 177.198 312.5C177.827 313.201 178.636 313.552 179.625 313.552C180.542 313.552 181.297 313.264 181.891 312.689C182.502 312.113 182.808 311.376 182.808 310.477C182.808 309.794 182.637 309.227 182.295 308.778C181.972 308.328 181.549 307.987 181.028 307.753C180.506 307.519 179.931 307.312 179.301 307.132C178.672 306.953 178.034 306.746 177.386 306.512C176.757 306.26 176.182 305.964 175.66 305.622C175.139 305.28 174.707 304.777 174.365 304.111C174.042 303.446 173.88 302.637 173.88 301.684C173.88 300.155 174.392 298.906 175.417 297.935C176.442 296.946 177.755 296.451 179.355 296.451C181.028 296.451 182.376 296.991 183.401 298.07C184.426 299.148 184.939 300.524 184.939 302.196H182.349C182.313 301.225 182.017 300.434 181.459 299.823C180.902 299.193 180.183 298.879 179.301 298.879C178.474 298.879 177.791 299.139 177.251 299.661C176.712 300.182 176.442 300.83 176.442 301.603C176.442 302.25 176.604 302.79 176.928 303.221C177.251 303.635 177.674 303.95 178.196 304.165C178.735 304.381 179.319 304.57 179.949 304.732C180.578 304.894 181.207 305.1 181.837 305.352C182.484 305.586 183.069 305.883 183.59 306.242C184.13 306.602 184.561 307.141 184.885 307.861C185.226 308.58 185.397 309.452 185.397 310.477C185.415 312.095 184.876 313.417 183.779 314.442C182.682 315.467 181.297 315.98 179.625 315.98Z" fill="#00063D"/>
<path d="M549.981 283.215H445.656C440.686 283.215 436.656 287.244 436.656 292.215V320.215C436.656 325.185 440.686 329.215 445.656 329.215H549.981C554.952 329.215 558.981 325.185 558.981 320.215V292.215C558.981 287.244 554.952 283.215 549.981 283.215Z" fill="#45FF00"/>
<path d="M549.981 283.215H445.656C440.686 283.215 436.656 287.244 436.656 292.215V320.215C436.656 325.185 440.686 329.215 445.656 329.215H549.981C554.952 329.215 558.981 325.185 558.981 320.215V292.215C558.981 287.244 554.952 283.215 549.981 283.215Z" stroke="#00063D" stroke-width="2"/>
<path d="M474.326 298.215L459.659 312.882L452.992 306.215" stroke="#00063D" stroke-width="2" stroke-linecap="square"/>
<path d="M536.867 315.656V296.775H542.1C543.844 296.775 545.256 297.261 546.335 298.232C547.432 299.185 547.98 300.381 547.98 301.819C547.98 303.851 547.108 305.335 545.364 306.27C547.09 307.097 547.953 308.572 547.953 310.693V315.656H545.337V310.99C545.337 308.76 544.15 307.645 541.776 307.645H539.457V315.656H536.867ZM539.457 305.326H541.938C542.963 305.326 543.781 305.038 544.393 304.463C545.022 303.887 545.337 303.132 545.337 302.197C545.337 301.298 545.022 300.579 544.393 300.039C543.781 299.482 542.963 299.203 541.938 299.203H539.457V305.326Z" fill="#00063D"/>
<path d="M523.383 315.656V296.775H528.535C530.261 296.775 531.663 297.261 532.742 298.232C533.839 299.203 534.388 300.48 534.388 302.062C534.388 303.716 533.848 305.074 532.769 306.135C531.69 307.196 530.297 307.726 528.589 307.726H525.999V315.656H523.383ZM525.999 305.326H528.4C529.425 305.326 530.243 305.038 530.854 304.463C531.466 303.869 531.771 303.105 531.771 302.17C531.771 301.289 531.466 300.579 530.854 300.039C530.243 299.482 529.425 299.203 528.4 299.203H525.999V305.326Z" fill="#00063D"/>
<path d="M511.054 296.775C513.733 296.775 515.954 297.665 517.716 299.446C519.497 301.226 520.387 303.456 520.387 306.135C520.387 308.868 519.497 311.143 517.716 312.959C515.954 314.757 513.733 315.656 511.054 315.656H505.039V296.775H511.054ZM507.655 313.202H511.216C513.068 313.202 514.614 312.528 515.855 311.179C517.114 309.83 517.743 308.149 517.743 306.135C517.743 304.157 517.123 302.512 515.882 301.199C514.659 299.886 513.104 299.23 511.216 299.23H507.655V313.202Z" fill="#00063D"/>
<path d="M493.124 315.98C490.426 315.98 488.17 315.053 486.354 313.201C484.555 311.331 483.656 309.003 483.656 306.215C483.656 303.464 484.582 301.153 486.434 299.283C488.287 297.395 490.552 296.451 493.232 296.451C495.335 296.451 497.143 297.018 498.653 298.15C500.164 299.283 501.189 300.695 501.728 302.385H498.869C498.401 301.342 497.628 300.497 496.549 299.85C495.488 299.184 494.364 298.852 493.178 298.852C491.272 298.852 489.644 299.553 488.296 300.956C486.965 302.358 486.3 304.093 486.3 306.161C486.3 308.283 486.956 310.054 488.269 311.475C489.599 312.878 491.254 313.579 493.232 313.579C494.994 313.579 496.441 313.03 497.574 311.934C498.725 310.819 499.345 309.461 499.435 307.861H493.313V305.46H502.079C502.097 305.712 502.106 306.125 502.106 306.701C502.106 309.29 501.261 311.484 499.57 313.282C497.88 315.08 495.731 315.98 493.124 315.98Z" fill="#00063D"/>
<path d="M391.507 113.174V94.2187C391.507 68.0467 370.291 46.8301 344.119 46.8301C317.947 46.8301 296.73 68.0467 296.73 94.2187V113.174M344.119 160.563V179.518M298.626 226.907H389.612C400.228 226.907 405.536 226.907 409.591 224.841C413.157 223.024 416.057 220.124 417.874 216.557C419.941 212.502 419.941 207.194 419.941 196.578V143.503C419.941 132.887 419.941 127.579 417.874 123.524C416.057 119.957 413.157 117.058 409.591 115.24C405.536 113.174 400.228 113.174 389.612 113.174H298.626C288.01 113.174 282.702 113.174 278.647 115.24C275.08 117.058 272.18 119.957 270.363 123.524C268.297 127.579 268.297 132.887 268.297 143.503V196.578C268.297 207.194 268.297 212.502 270.363 216.557C272.18 220.124 275.08 223.024 278.647 224.841C282.702 226.907 288.01 226.907 298.626 226.907Z" stroke="#00063D" stroke-width="2" stroke-linecap="square"/>
</g>
<mask id="mask1_820_4990" style="mask-type:luminance" maskUnits="userSpaceOnUse" x="-6" y="0" width="699" height="389">
<path d="M-5.25 0H692.75V389H-5.25V0Z" fill="white"/>
</mask>
<g mask="url(#mask1_820_4990)">
<path d="M-5.25 1H692.75V-1H-5.25V1Z" fill="#00063D" fill-opacity="0.2"/>
</g>
</g>
<defs>
<clipPath id="clip0_820_4990">
<rect width="687" height="389" fill="white"/>
</clipPath>
</defs>
</svg>
