<svg width="200" height="64" viewBox="0 0 200 64" fill="none" xmlns="http://www.w3.org/2000/svg">
<g clip-path="url(#clip0_383_21158)">
<path fill-rule="evenodd" clip-rule="evenodd" d="M54.9635 52.7552C49.4567 60.035 39.9852 64.0001 31.2287 64.0001C23.5535 64.0001 14.1717 61.2357 7.39757 52.7552H54.9635ZM123.686 14.1785C127.871 14.1785 129.751 15.9332 130.772 16.9763C130.824 17.0317 130.716 16.9763 130.772 17.0317L132.865 14.7812H134.583V26.1904H132.755C131.523 22.1861 129.696 15.9332 124.009 15.9332C117.101 15.9332 115.994 26.7354 115.957 33.5648L115.956 33.9268C115.956 41.0012 116.923 51.2049 123.203 51.2049C125.026 51.2049 126.478 50.6556 127.496 49.1206C128.196 48.1319 128.409 46.4326 128.409 45.2796V37.272C128.409 37.272 128.517 35.2421 127.658 34.4197C127.013 33.7615 125.995 33.7061 125.026 33.7061H124.223V32.0058H138.928V33.7061H138.659C137.694 33.7061 136.728 33.7615 136.084 34.4197C135.276 35.1938 135.323 37.0374 135.331 37.2516L135.332 52.7944H133.614L130.126 49.4492H130.073C128.838 51.5325 126.154 53.3436 122.237 53.3436C113.273 53.3436 108.391 45.1163 108.391 33.9268C108.391 22.4612 114.616 14.1785 123.686 14.1785ZM92.3206 15.0019C99.7798 15.0019 106.33 17.7453 106.33 25.6975C106.33 33.2677 99.9424 36.2843 92.3206 36.2843H89.6896V47.4747C89.6896 48.6277 89.7961 49.559 90.3896 50.1618C90.8168 50.6547 91.7308 50.9298 93.2318 50.9298H94.7347V52.5756H78.633V50.9298H79.0638C80.4059 50.9298 81.4266 50.711 81.9088 50.2707C82.4444 49.7768 82.7677 48.9553 82.7677 47.4747V20.4314C82.7677 18.6757 82.4444 17.4702 81.6415 17.0317C81.1022 16.7022 80.0854 16.6477 78.7414 16.6477H78.633V15.0019H92.3206ZM155.613 15.0019V16.6487H154.808C153.252 16.6487 152.607 16.9209 152.125 17.4148C151.586 18.0204 151.426 19.4446 151.426 20.5966V47.4747C151.426 48.6277 151.534 49.559 152.071 50.1618C152.555 50.6556 153.465 50.9288 154.97 50.9288H155.613V52.5756H140.316V50.9288H141.015C142.302 50.9288 143.161 50.711 143.644 50.2716C144.182 49.7768 144.503 48.9563 144.503 47.4747V20.5966C144.503 18.8409 144.182 17.4702 143.375 17.0327C142.884 16.7297 142.528 16.6595 141.438 16.6499L140.316 16.6487V15.0019H155.613ZM171.051 15.0029L179.047 41.1664L186.936 15.0029H198.905V16.6477H198.315C196.598 16.6477 195.685 16.9763 195.201 17.7988C194.826 18.4579 194.718 19.7188 194.718 20.9806V46.9255C194.718 49.8332 195.363 50.9298 198.422 50.9298H198.905V52.5756H183.663V50.9298H184.146C187.205 50.9298 187.796 49.8332 187.796 46.9255V19.3911L177.492 52.5756H175.934L165.522 19.3911L165.683 43.6338C165.736 48.1873 166.22 49.2304 166.864 49.8876C167.454 50.4923 168.26 50.9298 169.333 50.9298H169.923V52.5756H159.511V50.9298H159.78C160.801 50.9298 161.66 50.4923 162.249 49.8876C162.891 49.2304 163.376 48.3526 163.429 43.6338L163.591 20.5422C163.591 18.6757 163.266 17.6354 162.194 17.0862C161.604 16.7576 161.122 16.6477 160.049 16.6477H159.511V15.0029H171.051ZM31.4091 0.726074C49.5483 0.726074 59.2077 15.4862 60.8292 23.1347L44.8574 18.7129L31.0464 10.5028L25.9938 9.57145V13.3599L29.8735 17.0461L24.4582 16.5895C24.4582 16.5895 24.6433 16.8674 29.151 21.7534L49.7306 25.262L53.341 27.6605L43.9546 28.1181L40.0693 42.604L27.3444 51.2717H19.0468L21.8394 45.6445L21.3936 45.4621L13.8942 51.2717H12.0941L19.7636 40.2981C20.1281 37.1526 19.944 38.5434 20.402 32.9181L19.2253 31.2531L16.1522 43.4294L9.74535 51.2717H8.1191L11.9174 45.8346L17.2411 29.1297L15.8821 29.7802L13.5371 36.4257L11.9174 37.3417C11.9174 37.3417 8.1191 46.7545 6.13489 51.3682C3.25157 47.1203 0 41.4014 0 31.4394C0 16.4968 12.5408 0.726074 31.4091 0.726074ZM57.8525 33.7472L62.0078 35.2221C61.6386 40.5685 59.9227 46.0209 56.2215 51.2717H49.2763L55.8626 40.6678L57.8525 33.7472ZM52.5288 31.619L56.6795 33.3728L53.7924 40.2981L51.1746 42.604L45.9313 51.2717H42.5096L45.9313 45.0905L48.6398 42.7846L52.5288 31.619ZM44.3135 41.0413L45.1257 42.604L40.6161 51.2717H36.2869L44.3135 41.0413ZM31.4091 2.75115C13.7213 2.75115 2.1702 17.6058 2.1702 31.4394C2.1702 39.3716 4.06563 43.3434 6.13489 47.1203C8.74717 39.9208 13.9858 25.6278 13.9858 25.6278C13.9858 25.6278 16.4261 24.3354 16.4261 24.5236L19.944 15.3859L22.2058 14.1871L24.9966 8.09467L31.1362 9.11485L43.591 16.2246L57.5842 20.1935C53.9719 10.7731 43.7751 2.75115 31.4091 2.75115ZM46.2108 29.037L51.5269 31.2531L47.7463 38.5434L45.6668 38.9217L46.2108 34.6738L45.6668 33.8389L46.2108 29.037ZM92.3206 16.5923H89.6896V34.4732H92.3206C98.2246 34.4732 99.3499 30.1412 99.3499 25.6975C99.3499 21.2548 98.2769 16.5923 92.3206 16.5923Z" fill="#00063D"/>
</g>
<defs>
<clipPath id="clip0_383_21158">
<rect width="200" height="64" fill="white"/>
</clipPath>
</defs>
</svg>
